<svg xmlns="http://www.w3.org/2000/svg" xmlns:xlink="http://www.w3.org/1999/xlink" width="500" zoomAndPan="magnify" viewBox="0 0 375 374.999991" height="500" preserveAspectRatio="xMidYMid meet" version="1.0"><defs><clipPath id="ea77318041"><path d="M 28.125 0 L 346.875 0 L 346.875 375 L 28.125 375 Z M 28.125 0 " clip-rule="nonzero"/></clipPath></defs><rect x="-37.5" width="450" fill="#ffffff" y="-37.499999" height="449.999989" fill-opacity="1"/><rect x="-37.5" width="450" fill="#ffffff" y="-37.499999" height="449.999989" fill-opacity="1"/><g clip-path="url(#ea77318041)"><path fill="#d13532" d="M 187.5 375 C 208.21875 375 225 358.21875 225 337.5 L 150 337.5 C 150 358.21875 166.78125 375 187.5 375 Z M 309.375 262.5 L 309.375 159.375 C 309.375 101.71875 269.34375 53.625 215.625 40.875 L 215.625 28.125 C 215.625 12.5625 203.0625 0 187.5 0 C 171.9375 0 159.375 12.5625 159.375 28.125 L 159.375 40.875 C 105.65625 53.625 65.625 101.71875 65.625 159.375 L 65.625 262.5 L 28.125 300 L 28.125 318.75 L 346.875 318.75 L 346.875 300 Z M 309.375 262.5 " fill-opacity="1" fill-rule="nonzero"/></g></svg>